HIERARCHY
ROOT Hips
{
    OFFSET 0.0 0.0 0.0
    CHANNELS 6 Xposition Yposition Zposition Zrotation Xrotation Yrotation
    JOINT Spine
    {
        OFFSET 0.0 5.0 0.0
        CHANNELS 3 Zrotation Xrotation Yrotation
        JOINT Chest
        {
            OFFSET 0.0 5.0 0.0
            CHANNELS 3 Zrotation Xrotation Yrotation
            JOINT Neck
            {
                OFFSET 0.0 8.0 0.0
                CHANNELS 3 Zrotation Xrotation Yrotation
                JOINT Head
                {
                    OFFSET 0.0 5.0 0.0
                    CHANNELS 3 Zrotation Xrotation Yrotation
                    End Site
                    {
                        OFFSET 0.0 3.0 0.0
                    }
                }
            }
            JOINT LeftShoulder
            {
                OFFSET -5.0 0.0 0.0
                CHANNELS 3 Zrotation Xrotation Yrotation
                JOINT LeftArm
                {
                    OFFSET 0.0 -10.0 0.0
                    CHANNELS 3 Zrotation Xrotation Yrotation
                    JOINT LeftForeArm
                    {
                        OFFSET 0.0 -10.0 0.0
                        CHANNELS 3 Zrotation Xrotation Yrotation
                        End Site
                        {
                            OFFSET 0.0 -3.0 0.0
                        }
                    }
                }
            }
        }
    }
}

MOTION
Frames: 22
Frame Time: 0.033333
970.000000 442.938926 126.343713 0.000000 0.000000 0.000000 0.000000 0.000000 0.000000 29.678605 -0.255073 0.000000 180.000000 0.346949 0.000000 29.744881 7.568346 -0.000000 150.255119 -0.201016 30.000000 19.983107 -2.233367 0.000000 18.000000 0.122908 0.000000
1354.522934 467.411410 139.682478 0.000000 0.000000 0.000000 0.000000 0.000000 0.000000 150.622570 8.869118 4.973798 -29.377430 -5.613433 4.973798 140.176400 -3.332401 3.759997 -12.221629 -8.776978 29.763441 132.794256 4.905863 -3.759997 -2.626015 0.068344 0.313953
969.997807 442.887864 121.824921 0.000000 0.000000 0.000000 0.000000 0.000000 0.000000 31.061399 4.826542 9.635073 180.000000 4.748113 9.635073 30.285790 -9.079400 7.460697 149.714210 -1.111968 29.057495 19.151579 2.090062 -7.460697 18.000000 0.068910 0.626666
1246.736984 514.278152 106.775657 0.000000 0.000000 0.000000 0.000000 0.000000 0.000000 143.557092 5.425748 13.690942 -36.442908 4.013670 13.690942 133.761037 -7.255552 11.043737 -156.950665 -5.665820 27.893295 0.000000 0.000000 0.000000 1.928484 0.459911 0.936907
1245.221100 458.637464 97.837696 0.000000 0.000000 0.000000 0.000000 0.000000 0.000000 160.701064 0.944746 16.886559 -19.298936 -14.750667 16.886559 140.193827 2.840509 14.452610 -157.554825 -5.324083 26.289200 29.500467 5.096742 -14.452610 -15.049953 -0.509674 1.243449
1257.365570 418.514181 129.334499 0.000000 0.000000 0.000000 0.000000 0.000000 0.000000 -143.710676 -1.927396 19.021130 36.289324 5.556223 19.021130 163.220413 0.363451 17.633558 11.688054 3.050326 24.270510 152.038385 -1.692976 -17.633558 -2.339948 0.138100 1.545085
1275.099564 408.163741 124.514236 0.000000 0.000000 0.000000 0.000000 0.000000 0.000000 -132.929531 7.515064 19.960535 47.070469 -8.086737 19.960535 173.491912 0.096081 20.536413 -160.709681 -5.253591 21.869059 33.138793 6.245364 -20.536413 -14.686121 -0.624536 1.840623
1290.611115 384.880857 106.946154 0.000000 0.000000 0.000000 0.000000 0.000000 0.000000 -132.705235 13.199844 19.645745 47.294765 -15.737051 19.645745 -173.778854 1.269742 23.115397 20.496835 -5.112993 19.122720 -161.220290 -4.192842 -23.115397 1.723235 0.339339 2.128896
1302.817154 380.305352 102.477908 0.000000 0.000000 0.000000 0.000000 0.000000 0.000000 -131.493915 -4.209644 18.096541 48.506085 -4.172421 18.096541 -165.393697 0.112993 25.329838 23.154815 -4.541477 16.074804 -178.200316 1.731702 -25.329838 0.138141 -0.003742 2.408768
1304.997711 379.563582 98.365750 0.000000 0.000000 0.000000 0.000000 0.000000 0.000000 -126.727972 1.436437 15.410265 53.272028 -5.527809 15.410265 -160.219593 3.024631 27.144812 28.448880 3.263483 12.773379 -174.368770 -2.316126 -27.144812 0.079526 0.028108 2.679134
1311.668472 386.890390 80.404765 0.000000 0.000000 0.000000 0.000000 0.000000 0.000000 -122.308728 2.812306 11.755705 57.691272 6.431748 11.755705 -158.801130 -2.362737 28.531695 150.942637 -4.121785 9.270510 -154.878332 -3.838915 -28.531695 2.695409 0.476008 2.938926
1305.131836 395.180186 87.245892 0.000000 0.000000 0.000000 0.000000 0.000000 0.000000 -125.112810 -2.797470 7.362491 54.887190 -7.604914 7.362491 -146.487292 6.532201 29.468618 -175.167369 -6.775846 5.621439 -159.224034 -3.359499 -29.468618 1.782042 0.501780 3.187120
1296.320457 392.734526 81.945181 0.000000 0.000000 0.000000 0.000000 0.000000 0.000000 -131.035750 -5.015537 2.506665 48.964250 -8.235286 2.506665 -128.969563 4.208327 29.940802 38.856147 -4.308278 1.883716 -134.776850 0.023347 -29.940802 3.458429 0.111602 3.422736
1306.963577 386.612041 73.959831 0.000000 0.000000 0.000000 0.000000 0.000000 0.000000 -124.469622 1.999232 -2.506665 55.530378 -2.135837 -2.506665 -109.994856 2.170415 29.940802 37.691309 -2.058583 -1.883716 -118.274788 0.650730 -29.940802 5.098336 -0.098801 3.644843
969.892723 442.572198 72.777177 0.000000 0.000000 0.000000 0.000000 0.000000 0.000000 41.287575 5.562681 -7.362491 180.000000 -9.178281 -7.362491 30.974696 2.470047 29.468618 149.025304 0.719110 -5.621439 15.072869 -5.259411 -29.468618 18.000000 0.338380 3.852566
969.876883 442.545207 82.599694 0.000000 0.000000 0.000000 0.000000 0.000000 0.000000 42.241956 -21.932905 -11.755705 180.000000 -7.981335 -11.755705 30.826133 2.540347 28.531695 149.173867 2.061380 -9.270510 14.823070 -1.251655 -28.531695 18.000000 0.216557 4.045085
969.859960 442.518116 74.902118 0.000000 0.000000 0.000000 0.000000 0.000000 0.000000 43.199779 -44.065221 -15.410265 180.000000 33.456130 -15.410265 30.649504 -10.215593 27.144812 149.350496 22.315741 -12.773379 14.587557 1.394030 -27.144812 18.000000 0.112090 4.221640
969.841956 442.490926 84.475763 0.000000 0.000000 0.000000 0.000000 0.000000 0.000000 44.157210 32.700469 -18.096541 180.000000 -1.476928 -18.096541 30.446417 5.787000 25.329838 149.553583 3.448076 -16.074804 14.366154 -0.522082 -25.329838 18.000000 0.284817 4.381533
969.822873 442.463637 59.899238 0.000000 0.000000 0.000000 0.000000 0.000000 0.000000 45.110117 -33.460232 -19.645745 180.000000 -9.781775 -19.645745 30.218633 -5.629892 23.115397 149.781367 1.855565 -19.122720 14.158653 -1.824487 -23.115397 18.000000 0.229142 4.524135
969.802712 442.436251 56.088856 0.000000 0.000000 0.000000 0.000000 0.000000 0.000000 46.054109 -9.912688 -19.960535 180.000000 -11.059957 -19.960535 29.968037 1.244670 20.536413 150.031963 -8.845220 -21.869059 13.964823 1.554794 -20.536413 18.000000 0.032992 4.648882
1187.040939 541.658249 56.570119 0.000000 0.000000 0.000000 0.000000 0.000000 0.000000 82.806623 -12.228480 -19.021130 -97.193377 16.329722 -19.021130 45.395981 -8.912521 17.633558 -156.144455 -1.829325 -24.270510 0.000000 0.000000 0.000000 0.000000 0.000000 0.000000
1182.242889 522.024286 50.750051 0.000000 0.000000 0.000000 0.000000 0.000000 0.000000 -105.721938 -39.544884 -16.886559 74.278062 34.650818 -16.886559 -155.708006 -2.845292 14.452610 -157.302521 -1.473968 -26.289200 0.000000 0.000000 0.000000 2.684983 0.192898 4.842916
